<?xml version="1.0" encoding="utf-8"?>
<!-- Generator: Adobe Illustrator 16.0.0, SVG Export Plug-In . SVG Version: 6.00 Build 0)  -->
<!DOCTYPE svg PUBLIC "-//W3C//DTD SVG 1.1//EN" "http://www.w3.org/Graphics/SVG/1.1/DTD/svg11.dtd">
<svg version="1.1" id="Layer_1" xmlns="http://www.w3.org/2000/svg" xmlns:xlink="http://www.w3.org/1999/xlink" x="0px" y="0px"
	 width="24px" height="24px" viewBox="0 0 24 24" enable-background="new 0 0 24 24" xml:space="preserve">
<path fill="#C0C1C9" d="M23.988,23.578C23.99,23.559,24,23.541,24,23.52V9.446c0-0.021-0.01-0.039-0.012-0.059
	c-0.004-0.033-0.009-0.064-0.02-0.097c-0.011-0.032-0.027-0.059-0.044-0.087c-0.011-0.018-0.015-0.038-0.027-0.055
	c-0.006-0.007-0.015-0.011-0.021-0.018c-0.022-0.025-0.048-0.043-0.075-0.063c-0.023-0.018-0.047-0.037-0.072-0.049
	C23.705,9.006,23.681,9,23.655,8.993l-2.66-2.075V2.984c0-0.265-0.215-0.48-0.479-0.48h-5.192l-3.024-2.4
	c-0.175-0.139-0.422-0.139-0.597,0L8.664,2.504H3.485c-0.266,0-0.48,0.215-0.48,0.48v3.982L0.35,8.992
	C0.323,9,0.296,9.006,0.271,9.018C0.246,9.03,0.224,9.048,0.201,9.065C0.173,9.086,0.146,9.105,0.124,9.13
	C0.118,9.138,0.109,9.141,0.103,9.148C0.09,9.165,0.086,9.185,0.076,9.202C0.059,9.231,0.042,9.258,0.031,9.29
	C0.02,9.322,0.016,9.354,0.012,9.387C0.009,9.407,0,9.425,0,9.446V23.52c0,0.021,0.009,0.039,0.012,0.059
	c0.004,0.033,0.008,0.064,0.019,0.097c0.011,0.032,0.027,0.059,0.044,0.088c0.01,0.017,0.014,0.037,0.026,0.053
	c0.006,0.008,0.015,0.01,0.021,0.017c0.033,0.038,0.073,0.067,0.116,0.094c0.016,0.009,0.028,0.022,0.045,0.029
	C0.344,23.983,0.409,24,0.48,24h23.04c0.071,0,0.137-0.017,0.197-0.045c0.017-0.007,0.029-0.021,0.046-0.03
	c0.043-0.026,0.082-0.055,0.115-0.093c0.006-0.007,0.015-0.009,0.021-0.017c0.013-0.016,0.017-0.036,0.027-0.054
	c0.017-0.028,0.032-0.055,0.043-0.087S23.984,23.611,23.988,23.578z M0.96,10.434l7.711,6.069L0.96,22.535V10.434z M9.448,17.114
	l2.255,1.775c0.087,0.068,0.192,0.103,0.297,0.103s0.21-0.034,0.297-0.103l2.255-1.774l7.575,5.925H1.873L9.448,17.114z
	 M15.328,16.504l7.712-6.07v12.101L15.328,16.504z M22.71,9.473l-1.715,1.35V8.136L22.71,9.473z M12,1.092l1.78,1.412h-3.567
	L12,1.092z M20.035,3.464v8.113L12,17.901l-8.035-6.324V3.464H20.035z M3.005,10.822L1.296,9.477l1.709-1.303V10.822z"/>
<path fill="#70D463" d="M15.262,7.021c-0.777-0.787-2.022-0.782-2.795,0l-0.465,0.472l-0.466-0.472c-0.77-0.779-2.024-0.782-2.795,0
	c-0.777,0.787-0.772,2.048,0,2.83l3.261,3.302l3.26-3.302C16.031,9.071,16.033,7.802,15.262,7.021z M14.68,9.261l-2.678,2.712
	L9.324,9.261C8.871,8.803,8.87,8.069,9.322,7.61c0.449-0.455,1.183-0.455,1.631,0l1.048,1.061L13.05,7.61
	c0.452-0.458,1.177-0.459,1.63,0C15.13,8.064,15.129,8.806,14.68,9.261z"/>
</svg>
